<?xml version="1.0" standalone="no"?>
<!DOCTYPE svg PUBLIC "-//W3C//DTD SVG 20010904//EN"
 "http://www.w3.org/TR/2001/REC-SVG-20010904/DTD/svg10.dtd">
<svg version="1.0" xmlns="http://www.w3.org/2000/svg"
 width="500.000000pt" height="500.000000pt" viewBox="0 0 500.000000 500.000000"
 preserveAspectRatio="xMidYMid meet">
<metadata>
Created by potrace 1.14, written by Peter Selinger 2001-2017
</metadata>
<g transform="translate(0.000000,500.000000) scale(0.100000,-0.100000)"
fill="#000000" stroke="none">
<path d="M3127 4964 c-3 -3 -443 -7 -979 -9 -535 -2 -986 -5 -1003 -8 -90 -14
-164 -31 -223 -49 -37 -12 -69 -22 -72 -23 -71 -21 -280 -138 -280 -157 0 -5
-7 -8 -15 -8 -24 0 -227 -210 -275 -285 -24 -38 -49 -73 -55 -77 -5 -4 -6 -8
-1 -8 5 0 3 -6 -3 -14 -11 -13 -61 -104 -60 -109 0 -3 -9 -27 -32 -89 -10 -26
-20 -58 -23 -70 -2 -13 -9 -45 -15 -71 -6 -27 -9 -52 -6 -57 3 -5 2 -11 -3
-14 -4 -2 -10 -24 -13 -48 -2 -24 -4 -650 -4 -1393 0 -1255 1 -1356 18 -1430
25 -113 65 -228 110 -315 50 -95 146 -240 164 -247 7 -3 13 -10 13 -15 0 -9
33 -42 117 -119 53 -47 161 -118 253 -165 41 -21 77 -39 80 -39 3 -1 41 -13
85 -27 109 -36 155 -46 238 -53 23 -2 42 -4 42 -5 0 -6 459 -10 1300 -10 1073
0 1411 5 1471 23 10 4 35 9 54 12 47 8 102 25 118 38 6 5 12 7 12 4 0 -19 203
84 305 154 83 57 282 249 258 249 -3 0 4 8 15 19 12 10 22 23 22 28 0 6 10 21
21 34 66 73 164 338 184 494 5 43 17 244 16 283 0 6 0 32 0 57 0 25 0 52 -1
60 -1 45 -2 186 -1 203 0 6 1 39 1 72 0 82 -1 78 2 190 2 55 1 100 -2 100 -6
0 -3 139 4 157 3 7 2 13 -2 13 -6 0 -7 55 -2 70 1 3 1 10 0 15 -3 13 -3 187 0
200 1 6 2 12 1 15 -6 17 -5 170 1 170 4 0 4 10 0 23 -9 24 -8 56 1 80 3 8 3
18 -1 21 -8 8 -5 103 3 116 3 6 3 10 -2 10 -4 0 -8 16 -8 35 0 19 2 35 5 35 3
0 4 17 3 38 -6 76 -6 122 0 128 3 3 2 17 -3 30 -5 13 -6 26 0 29 5 3 5 18 0
35 -5 16 -5 32 0 35 5 3 5 18 2 33 -4 15 -6 41 -5 57 5 59 5 216 0 221 -3 3
-1 18 3 34 4 16 6 30 4 32 -2 3 -6 45 -9 94 -8 129 -30 242 -70 362 -3 7 -5
16 -6 20 -3 16 -99 201 -111 213 -7 8 -30 39 -51 70 -36 52 -120 142 -192 204
-117 102 -346 222 -475 249 -14 3 -47 10 -75 16 -27 6 -63 13 -80 16 -16 3
-191 7 -387 9 -197 2 -362 6 -367 9 -4 3 -11 3 -14 0z"/>
</g>
</svg>
